<?xml version="1.0" encoding="UTF-8" standalone="no"?>
<!-- Created with Inkscape (http://www.inkscape.org/) -->

<svg
   xmlns:dc="http://purl.org/dc/elements/1.1/"
   xmlns:cc="http://creativecommons.org/ns#"
   xmlns:rdf="http://www.w3.org/1999/02/22-rdf-syntax-ns#"
   xmlns:svg="http://www.w3.org/2000/svg"
   xmlns="http://www.w3.org/2000/svg"
   xmlns:xlink="http://www.w3.org/1999/xlink"
   xmlns:sodipodi="http://sodipodi.sourceforge.net/DTD/sodipodi-0.dtd"
   xmlns:inkscape="http://www.inkscape.org/namespaces/inkscape"
   width="827.87714"
   height="337.7283"
   id="svg3586"
   version="1.1"
   inkscape:version="0.48.3.1 r9886"
   sodipodi:docname="New document 2">
  <defs
     id="defs3588">
    <linearGradient
       inkscape:collect="always"
       xlink:href="#tube_4_"
       id="linearGradient3296"
       gradientUnits="userSpaceOnUse"
       gradientTransform="matrix(0.9138,-0.4062,0.4062,0.9138,-56.6658,215.7002)"
       x1="724.5791"
       y1="335.69629"
       x2="787.73462"
       y2="398.85181" />
    <linearGradient
       id="tube_4_"
       gradientUnits="userSpaceOnUse"
       x1="724.5791"
       y1="335.69629"
       x2="787.73462"
       y2="398.85181"
       gradientTransform="matrix(0.9138,-0.4062,0.4062,0.9138,-56.6658,215.7002)">
      <stop
         offset="0"
         style="stop-color:#919191"
         id="stop136" />
      <stop
         offset="1"
         style="stop-color:#FFFFFF"
         id="stop138" />
    </linearGradient>
    <linearGradient
       inkscape:collect="always"
       xlink:href="#liquid_3_"
       id="linearGradient3298"
       gradientUnits="userSpaceOnUse"
       gradientTransform="matrix(0.9138,-0.4062,0.4062,0.9138,-56.6658,215.7002)"
       x1="700.83197"
       y1="383.875"
       x2="739.06622"
       y2="422.10919" />
    <linearGradient
       id="liquid_3_"
       gradientUnits="userSpaceOnUse"
       x1="700.83197"
       y1="383.875"
       x2="739.06622"
       y2="422.10919"
       gradientTransform="matrix(0.9138,-0.4062,0.4062,0.9138,-56.6658,215.7002)">
      <stop
         offset="0"
         style="stop-color:#990000"
         id="stop142" />
      <stop
         offset="1"
         style="stop-color:#E80000"
         id="stop144" />
    </linearGradient>
    <linearGradient
       inkscape:collect="always"
       xlink:href="#SVGID_3_"
       id="linearGradient3300"
       gradientUnits="userSpaceOnUse"
       x1="411.25879"
       y1="399.63571"
       x2="411.25879"
       y2="134.1638" />
    <linearGradient
       id="SVGID_3_"
       gradientUnits="userSpaceOnUse"
       x1="411.25879"
       y1="399.63571"
       x2="411.25879"
       y2="134.1638">
      <stop
         offset="0"
         style="stop-color:#1A1A1A"
         id="stop174" />
      <stop
         offset="0.4026"
         style="stop-color:#4A4A4C"
         id="stop176" />
      <stop
         offset="1"
         style="stop-color:#333333"
         id="stop178" />
    </linearGradient>
    <mask
       maskUnits="userSpaceOnUse"
       x="58.294"
       y="134.165"
       width="705.929"
       height="265.471"
       id="SVGID_4_">
      <g
         id="g188"
         style="filter:url(#Adobe_OpacityMaskFilter_1_)">
        <image
           style="overflow:visible"
           id="image190"
           transform="translate(56,132)"
           height="270"
           width="711"
           overflow="visible"
           xlink:href="/home/sotiri/BFF79FDAE99D0745.jpg" />
      </g>
    </mask>
    <filter
       id="Adobe_OpacityMaskFilter_1_"
       filterUnits="userSpaceOnUse"
       x="58.293999"
       y="134.16499"
       width="705.92902"
       height="265.47101"
       color-interpolation-filters="sRGB">
      <feColorMatrix
         type="matrix"
         values="-1 0 0 0 1  0 -1 0 0 1  0 0 -1 0 1  0 0 0 1 0"
         color-interpolation-filters="sRGB"
         result="source"
         id="feColorMatrix185" />
    </filter>
    <linearGradient
       inkscape:collect="always"
       xlink:href="#tube_4_"
       id="linearGradient3841"
       gradientUnits="userSpaceOnUse"
       gradientTransform="matrix(0.9138,-0.4062,0.4062,0.9138,-56.6658,215.7002)"
       x1="724.5791"
       y1="335.69629"
       x2="787.73462"
       y2="398.85181" />
    <linearGradient
       inkscape:collect="always"
       xlink:href="#liquid_3_"
       id="linearGradient3843"
       gradientUnits="userSpaceOnUse"
       gradientTransform="matrix(0.9138,-0.4062,0.4062,0.9138,-56.6658,215.7002)"
       x1="700.83197"
       y1="383.875"
       x2="739.06622"
       y2="422.10919" />
    <linearGradient
       inkscape:collect="always"
       xlink:href="#SVGID_3_"
       id="linearGradient3845"
       gradientUnits="userSpaceOnUse"
       x1="411.25879"
       y1="399.63571"
       x2="411.25879"
       y2="134.1638" />
  </defs>
  <sodipodi:namedview
     id="base"
     pagecolor="#ffffff"
     bordercolor="#666666"
     borderopacity="1.0"
     inkscape:pageopacity="0.0"
     inkscape:pageshadow="2"
     inkscape:zoom="0.35"
     inkscape:cx="446.08142"
     inkscape:cy="-265.42156"
     inkscape:document-units="px"
     inkscape:current-layer="layer1"
     showgrid="false"
     fit-margin-top="0"
     fit-margin-left="0"
     fit-margin-right="0"
     fit-margin-bottom="0"
     inkscape:window-width="683"
     inkscape:window-height="384"
     inkscape:window-x="683"
     inkscape:window-y="0"
     inkscape:window-maximized="0" />
  <metadata
     id="metadata3591">
    <rdf:RDF>
      <cc:Work
         rdf:about="">
        <dc:format>image/svg+xml</dc:format>
        <dc:type
           rdf:resource="http://purl.org/dc/dcmitype/StillImage" />
        <dc:title></dc:title>
      </cc:Work>
    </rdf:RDF>
  </metadata>
  <g
     inkscape:label="Layer 1"
     inkscape:groupmode="layer"
     id="layer1"
     transform="translate(71.08142,-157.78374)">
    <g
       id="g3771">
      <g
         style="display:inline"
         display="inline"
         id="test-tube_1_"
         transform="translate(-129.37598,84.135381)">
        <path
           style="opacity:0.1"
           inkscape:connector-curvature="0"
           d="m 802.411,80.363 c -0.151,0.607 -0.155,1.259 -0.027,1.948 0,0 2.065,13.708 -0.279,19.809 l -99.675,259.171 0.008,0.003 c -7.113,19.036 2.419,40.289 21.429,47.601 19.009,7.311 40.325,-2.079 47.801,-20.976 l 0.009,0.004 99.675,-259.172 c 1.949,-5.07 13.064,-14.892 13.064,-14.892 0.558,-0.425 0.99,-0.913 1.285,-1.464 l 0.049,-0.101 c 0.054,-0.108 0.116,-0.212 0.159,-0.325 2.57,-6.683 -14.008,-19.279 -37.028,-28.132 -23.021,-8.854 -43.767,-10.613 -46.337,-3.93 -0.044,0.113 -0.068,0.231 -0.101,0.348 l -0.032,0.108 z"
           id="shadow_1_" />
        <linearGradient
           gradientTransform="matrix(0.9138,-0.4062,0.4062,0.9138,-56.6658,215.7002)"
           y2="398.85181"
           x2="787.73462"
           y1="335.69629"
           x1="724.5791"
           gradientUnits="userSpaceOnUse"
           id="linearGradient3364">
          <stop
             id="stop3366"
             style="stop-color:#919191"
             offset="0" />
          <stop
             id="stop3368"
             style="stop-color:#FFFFFF"
             offset="1" />
        </linearGradient>
        <path
           style="fill:url(#linearGradient3841)"
           inkscape:connector-curvature="0"
           d="m 799.53,78.16 c -0.152,0.607 -0.156,1.259 -0.027,1.948 0,0 2.065,13.708 -0.28,19.809 l -99.675,259.171 0.009,0.003 c -7.113,19.036 2.419,40.289 21.429,47.601 19.008,7.311 40.325,-2.079 47.801,-20.976 l 0.009,0.004 99.675,-259.172 c 1.948,-5.07 13.064,-14.892 13.064,-14.892 0.558,-0.425 0.99,-0.912 1.285,-1.464 l 0.048,-0.101 c 0.054,-0.108 0.116,-0.212 0.159,-0.325 2.57,-6.683 -14.008,-19.279 -37.027,-28.132 -23.021,-8.854 -43.767,-10.613 -46.337,-3.93 -0.044,0.113 -0.068,0.231 -0.101,0.348 l -0.032,0.108 z"
           id="tube_1_" />
        <linearGradient
           gradientTransform="matrix(0.9138,-0.4062,0.4062,0.9138,-56.6658,215.7002)"
           y2="422.10919"
           x2="739.06622"
           y1="383.875"
           x1="700.83197"
           gradientUnits="userSpaceOnUse"
           id="linearGradient3371">
          <stop
             id="stop3373"
             style="stop-color:#990000"
             offset="0" />
          <stop
             id="stop3375"
             style="stop-color:#E80000"
             offset="1" />
        </linearGradient>
        <path
           style="fill:url(#linearGradient3843)"
           inkscape:connector-curvature="0"
           d="m 830.797,195.407 -71.88,186.9 0.047,0.018 c -5.302,13.396 -20.729,20.365 -34.416,15.102 -13.687,-5.263 -21.094,-21.015 -16.053,-34.512 l 0,0 45.93,-119.426 c 0,0 5.736,-9.253 16.999,-15.836 11.263,-6.583 20.551,-5.193 33.058,-10.752 12.505,-5.56 26.315,-21.494 26.315,-21.494 z"
           id="liquid_1_" />
        <ellipse
           d="m 868.80202,94.406998 c 0,4.026155 -12.40932,7.290002 -27.717,7.290002 -15.30767,0 -27.717,-3.263847 -27.717,-7.290002 0,-4.026156 12.40933,-7.29 27.717,-7.29 15.30768,0 27.717,3.263844 27.717,7.29 z"
           style="fill:#333333"
           sodipodi:ry="7.29"
           sodipodi:rx="27.716999"
           sodipodi:cy="94.406998"
           sodipodi:cx="841.08502"
           ry="7.29"
           rx="27.716999"
           cy="94.406998"
           cx="841.08502"
           transform="matrix(0.9334,0.359,-0.359,0.9334,89.9472,-295.6295)"
           id="top_1_" />
        <path
           style="opacity:0.3;fill:#ffffff"
           inkscape:connector-curvature="0"
           d="m 799.503,80.107 c 0,0 2.035,13.787 -0.28,19.809 l -99.675,259.171 0.009,0.003 c -7.113,19.036 2.419,40.289 21.429,47.601 3.299,1.269 6.666,2.022 10.02,2.324 -12.813,-9.64 -18.312,-26.88 -12.433,-42.611 l -0.009,-0.003 97.697,-254.031 c 0,10e-4 -13.299,-12.486 -16.758,-32.263 z"
           id="side-reflection_1_" />
        <g
           id="bubbles_1_">
          <circle
             d="m 770.29999,247.29401 c 0,1.59499 -1.293,2.888 -2.888,2.888 -1.595,0 -2.888,-1.29301 -2.888,-2.888 0,-1.595 1.293,-2.888 2.888,-2.888 1.595,0 2.888,1.293 2.888,2.888 z"
             style="opacity:0.5;fill:#ffffff"
             sodipodi:ry="2.888"
             sodipodi:rx="2.888"
             sodipodi:cy="247.29401"
             sodipodi:cx="767.41199"
             id="circle150"
             r="2.888"
             cy="247.29401"
             cx="767.41199" />
          <circle
             d="m 790.69799,268.23499 c 0,2.40464 -1.94935,4.354 -4.354,4.354 -2.40464,0 -4.354,-1.94936 -4.354,-4.354 0,-2.40465 1.94936,-4.354 4.354,-4.354 2.40465,0 4.354,1.94935 4.354,4.354 z"
             style="opacity:0.5;fill:#ffffff"
             sodipodi:ry="4.3540001"
             sodipodi:rx="4.3540001"
             sodipodi:cy="268.23499"
             sodipodi:cx="786.34399"
             id="circle152"
             r="4.3540001"
             cy="268.23499"
             cx="786.34399" />
          <circle
             d="m 765.60999,293.138 c 0,4.51051 -3.65649,8.167 -8.167,8.167 -4.51051,0 -8.167,-3.65649 -8.167,-8.167 0,-4.51051 3.65649,-8.167 8.167,-8.167 4.51051,0 8.167,3.65649 8.167,8.167 z"
             style="opacity:0.5;fill:#ffffff"
             sodipodi:ry="8.1669998"
             sodipodi:rx="8.1669998"
             sodipodi:cy="293.138"
             sodipodi:cx="757.44299"
             id="circle154"
             r="8.1669998"
             cy="293.138"
             cx="757.44299" />
          <circle
             d="m 748.57299,308.241 c 0,2.40465 -1.94935,4.354 -4.354,4.354 -2.40464,0 -4.354,-1.94935 -4.354,-4.354 0,-2.40465 1.94936,-4.354 4.354,-4.354 2.40465,0 4.354,1.94935 4.354,4.354 z"
             style="opacity:0.5;fill:#ffffff"
             sodipodi:ry="4.3540001"
             sodipodi:rx="4.3540001"
             sodipodi:cy="308.241"
             sodipodi:cx="744.21899"
             id="circle156"
             r="4.3540001"
             cy="308.241"
             cx="744.21899" />
          <circle
             d="m 764.45099,340.54199 c 0,1.595 -1.293,2.888 -2.888,2.888 -1.595,0 -2.888,-1.293 -2.888,-2.888 0,-1.595 1.293,-2.888 2.888,-2.888 1.595,0 2.888,1.293 2.888,2.888 z"
             style="opacity:0.5;fill:#ffffff"
             sodipodi:ry="2.888"
             sodipodi:rx="2.888"
             sodipodi:cy="340.54199"
             sodipodi:cx="761.56299"
             id="circle158"
             r="2.888"
             cy="340.54199"
             cx="761.56299" />
        </g>
      </g>
      <g
         style="display:inline"
         display="inline"
         id="jekyll-text_1_"
         transform="translate(-129.37598,84.135381)">
        <g
           style="opacity:0.1"
           id="g161">
          <g
             id="g163">
            <path
               inkscape:connector-curvature="0"
               id="path165"
               d="m 253.384,231.366 c 4.415,3.528 12.361,1.47 17.659,-4.411 5.592,-6.175 6.475,-14.115 2.061,-17.644 -4.416,-3.529 -12.362,-1.47 -17.66,4.705 -5.592,6.175 -6.475,13.821 -2.06,17.35 z m -12.95,11.469 c -1.177,0 -3.237,2.058 -1.472,2.94 2.354,0.882 3.532,2.939 3.532,5.881 -2.06,12.057 -17.07,25.877 -22.957,30.582 -1.472,1.471 0.589,4.705 2.06,3.529 3.238,-2.646 10.007,-7.94 15.6,-14.998 -9.124,20.291 -26.784,46.462 -33.553,55.578 -26.488,36.757 -66.811,70.574 -94.477,70.574 -22.074,0 -40.911,-14.997 -45.031,-37.052 -0.294,-2.353 -3.532,-2.94 -2.943,0.294 5.003,30.289 28.255,42.051 56.51,42.051 30.904,0 67.178,-22.392 87.126,-45.306 32.279,-37.078 53.265,-79.67 47.673,-103.782 -2.355,-9.115 -8.536,-10.586 -12.068,-10.291 z m 198.579,80.63 c 8.535,-2.059 15.599,-6.835 15.599,-14.222 0,-0.738 -1.472,-0.738 -1.472,0 0,4.433 -5.003,8.047 -10.595,8.929 -13.245,2.059 -39.439,-13.474 -51.801,-29.354 13.245,5 40.322,-2.325 52.978,-11.441 11.773,-8.527 16.482,-17.924 17.365,-25.569 1.471,-12.646 -12.362,-19.989 -31.493,-12.638 -12.361,4.999 -27.077,15.882 -42.382,36.172 16.188,-26.759 47.974,-70.279 79.172,-98.214 37.967,-33.817 60.042,-27.347 25.9,8.529 -14.127,14.703 -40.616,33.817 -58.864,42.051 -5.592,2.353 -2.943,5.587 1.177,3.823 19.425,-8.528 45.326,-26.171 60.924,-40.875 46.209,-44.403 7.652,-77.926 -43.559,-30.876 -34.73,32.053 -57.393,65.575 -77.112,109.096 -6.77,8.233 -11.773,14.997 -17.954,20.29 -0.729,0.644 -1.313,1.271 -1.794,1.87 -16.997,14.565 -43.678,34.228 -60.258,34.464 -11.773,0.294 -16.776,-8.527 -14.716,-19.996 3.237,-17.938 21.78,-39.11 37.673,-46.461 20.603,-9.41 32.669,8.821 5.592,23.524 -10.302,5.293 -22.663,8.233 -27.667,8.233 -5.887,0 -5.298,2.353 -0.294,2.646 8.241,0.294 21.486,-3.234 30.315,-7.352 27.666,-13.232 29.432,-37.934 -0.589,-38.815 -32.669,-1.177 -71.814,26.759 -71.52,61.752 0.294,15.88 12.95,24.407 30.315,24.407 28.878,-0.262 54.708,-22.28 75.827,-41.644 3.032,-2.521 5.961,-5.293 8.888,-8.217 -7.358,18.819 -11.184,36.169 -9.418,49.108 1.178,9.41 6.476,13.82 10.596,17.35 0.883,0.588 2.649,0 1.471,-1.765 -6.181,-7.352 -4.415,-29.166 4.121,-50.338 7.065,14.118 34.731,32.003 63.575,25.533 z m -34.73,-61.353 c 33.847,-30.288 47.091,-3.234 25.606,13.232 -11.185,8.528 -33.259,14.998 -40.322,10.881 l -1.472,-0.882 c -0.883,-1.471 -1.766,-2.941 -2.354,-4.411 5.592,-6.763 12.067,-12.938 18.542,-18.82 z m 187.854,-34.321 c 13.539,1.471 7.946,-14.997 -5.886,-10.88 -6.181,1.764 -12.067,13.526 -16.482,23.819 -13.539,20.29 -36.202,47.932 -52.095,62.341 -14.128,12.056 -27.078,15.291 -11.185,-7.353 6.475,-9.115 14.716,-18.819 19.426,-28.523 11.184,-24.407 -12.656,-35.287 -31.787,-20.584 -11.184,8.527 -26.194,26.171 -37.967,35.875 -3.238,2.646 -2.355,6.47 0.883,3.823 9.417,-7.646 25.9,-24.995 40.027,-35.287 11.772,-9.116 16.482,-3.235 9.712,4.41 -9.418,10.881 -25.9,29.7 -30.02,41.757 -5.887,17.938 1.177,25.877 12.95,25.877 16.188,0 40.322,-25.289 56.51,-45.285 5.298,-6.763 11.185,-14.703 16.188,-22.349 -14.127,27.348 -28.844,54.989 -47.091,79.984 -25.9,35.288 -58.275,61.753 -88.885,61.753 -22.074,0 -41.205,-14.997 -45.326,-37.051 -0.294,-2.354 -3.237,-2.941 -2.943,0.293 5.003,30.289 28.255,42.051 56.51,42.051 30.904,0 60.63,-17.938 81.527,-39.992 42.088,-44.403 47.091,-94.393 60.042,-122.329 5.885,-12.35 11.477,-12.938 15.892,-12.35 z m 171.09,-42.815 c 6.181,-10.586 5.887,-18.82 -8.534,-18.82 -10.891,0.294 -30.61,7.939 -39.734,14.997 -2.061,2.059 -1.178,3.235 1.472,2.059 1.766,-0.588 3.826,-1.765 5.887,-2.646 10.301,-5.587 6.181,6.175 3.825,10.586 -12.361,21.466 -34.141,51.754 -45.619,66.751 -5.499,7.384 -11.699,14.759 -17.667,21.029 -11.054,10.485 -32.883,29.062 -49.4,35.313 -53.566,19.996 14.716,-71.162 20.309,-78.514 12.655,-15.88 40.911,-43.521 49.445,-57.342 6.182,-10.586 5.887,-18.82 -8.534,-18.82 -10.891,0.294 -30.609,7.939 -39.733,14.997 -2.061,2.059 -1.178,3.234 1.471,2.059 1.767,-0.588 3.826,-1.765 5.887,-2.646 10.301,-5.587 6.181,6.175 3.826,10.586 -12.361,21.466 -34.142,51.755 -45.62,66.752 -9.418,12.645 -20.896,25.289 -29.727,32.347 -3.531,2.94 -1.472,5.587 2.061,3.234 3.237,-2.059 7.946,-6.764 13.244,-12.351 -9.712,19.408 -17.659,46.756 7.947,49.99 21.82,2.983 47.764,-19.285 64.54,-35.778 1.849,-1.75 3.877,-3.806 6.02,-6.042 0.504,-0.515 0.997,-1.019 1.473,-1.507 -9.695,19.403 -17.587,46.684 7.984,49.914 27.961,3.822 62.691,-33.817 76.229,-47.639 2.649,-2.646 1.766,-7.057 -2.648,-2.646 -7.947,8.234 -34.73,32.641 -54.155,39.993 -53.566,19.995 14.716,-71.163 20.308,-78.515 12.653,-15.879 40.908,-43.521 49.443,-57.341 z" />
          </g>
        </g>
        <g
           id="g167">
          <g
             id="g169">
            <g
               id="g171">
              <linearGradient
                 y2="134.1638"
                 x2="411.25879"
                 y1="399.63571"
                 x1="411.25879"
                 gradientUnits="userSpaceOnUse"
                 id="linearGradient3393">
                <stop
                   id="stop3395"
                   style="stop-color:#1A1A1A"
                   offset="0" />
                <stop
                   id="stop3397"
                   style="stop-color:#4A4A4C"
                   offset="0.4026" />
                <stop
                   id="stop3399"
                   style="stop-color:#333333"
                   offset="1" />
              </linearGradient>
              <path
                 style="fill:url(#linearGradient3845)"
                 inkscape:connector-curvature="0"
                 id="path180"
                 d="m 250.558,228.539 c 4.415,3.529 12.361,1.471 17.659,-4.411 5.592,-6.175 6.475,-14.115 2.061,-17.644 -4.415,-3.529 -12.362,-1.47 -17.66,4.705 -5.593,6.176 -6.475,13.822 -2.06,17.35 z m -12.951,11.469 c -1.177,0 -3.237,2.059 -1.472,2.94 2.354,0.882 3.532,2.94 3.532,5.882 -2.06,12.056 -17.07,25.877 -22.957,30.582 -1.472,1.47 0.589,4.705 2.06,3.528 3.238,-2.646 10.007,-7.939 15.6,-14.997 -9.124,20.29 -26.784,46.462 -33.553,55.577 -26.488,36.758 -66.811,70.574 -94.477,70.574 -22.074,0 -40.911,-14.996 -45.031,-37.051 -0.294,-2.354 -3.532,-2.94 -2.943,0.294 5.003,30.288 28.255,42.05 56.51,42.05 30.904,0 67.178,-22.392 87.126,-45.306 32.279,-37.078 53.265,-79.669 47.673,-103.782 -2.355,-9.115 -8.535,-10.585 -12.068,-10.291 z m 198.579,80.631 c 8.535,-2.059 15.599,-6.835 15.599,-14.222 0,-0.739 -1.472,-0.739 -1.472,0 0,4.432 -5.003,8.046 -10.595,8.928 -13.245,2.059 -39.439,-13.473 -51.801,-29.353 13.245,4.999 40.322,-2.326 52.978,-11.441 11.773,-8.528 16.482,-17.925 17.365,-25.57 1.471,-12.645 -12.362,-19.989 -31.493,-12.638 -12.361,4.999 -27.077,15.883 -42.382,36.173 16.188,-26.76 47.974,-70.279 79.172,-98.215 37.967,-33.817 60.042,-27.347 25.901,8.529 -14.128,14.703 -40.617,33.817 -58.865,42.051 -5.592,2.353 -2.943,5.587 1.177,3.822 19.426,-8.527 45.326,-26.171 60.925,-40.874 46.208,-44.403 7.652,-77.926 -43.56,-30.876 -34.73,32.053 -57.393,65.575 -77.112,109.097 -6.77,8.233 -11.773,14.997 -17.954,20.29 -0.729,0.643 -1.313,1.27 -1.794,1.869 -16.997,14.566 -43.677,34.228 -60.258,34.465 -11.773,0.294 -16.776,-8.528 -14.716,-19.996 3.237,-17.938 21.78,-39.11 37.673,-46.462 20.603,-9.41 32.669,8.821 5.592,23.524 -10.301,5.294 -22.663,8.234 -27.666,8.234 -5.886,0 -5.298,2.353 -0.294,2.646 8.241,0.294 21.486,-3.235 30.315,-7.353 27.666,-13.232 29.432,-37.934 -0.589,-38.815 -32.67,-1.176 -71.814,26.76 -71.52,61.753 0.294,15.879 12.95,24.407 30.315,24.407 28.878,-0.263 54.708,-22.281 75.826,-41.644 3.032,-2.522 5.961,-5.293 8.888,-8.218 -7.358,18.82 -11.184,36.17 -9.418,49.108 1.178,9.41 6.476,13.821 10.596,17.35 0.883,0.588 2.649,0 1.471,-1.764 -6.181,-7.352 -4.415,-29.166 4.121,-50.338 7.065,14.117 34.732,32.001 63.575,25.533 z m -34.729,-61.353 c 33.847,-30.288 47.091,-3.234 25.606,13.232 -11.184,8.528 -33.258,14.997 -40.322,10.88 l -1.472,-0.882 c -0.883,-1.47 -1.766,-2.94 -2.354,-4.41 5.591,-6.763 12.066,-12.939 18.542,-18.82 z m 187.854,-34.321 c 13.538,1.47 7.946,-14.998 -5.887,-10.88 -6.181,1.764 -12.067,13.527 -16.482,23.819 -13.538,20.29 -36.201,47.932 -52.095,62.341 -14.127,12.057 -27.077,15.291 -11.184,-7.352 6.475,-9.116 14.716,-18.82 19.425,-28.523 11.184,-24.407 -12.656,-35.287 -31.787,-20.584 -11.184,8.527 -26.194,26.171 -37.967,35.875 -3.238,2.646 -2.355,6.469 0.883,3.822 9.418,-7.646 25.9,-24.995 40.027,-35.287 11.773,-9.116 16.482,-3.234 9.713,4.411 -9.418,10.88 -25.9,29.7 -30.021,41.757 -5.887,17.938 1.177,25.877 12.949,25.877 16.188,0 40.322,-25.289 56.51,-45.285 5.298,-6.764 11.185,-14.703 16.188,-22.349 -14.128,27.348 -28.844,54.989 -47.092,79.984 -25.899,35.287 -58.275,61.752 -88.885,61.752 -22.074,0 -41.205,-14.996 -45.325,-37.051 -0.295,-2.353 -3.238,-2.94 -2.944,0.294 5.003,30.288 28.255,42.05 56.51,42.05 30.904,0 60.63,-17.938 81.527,-39.991 42.088,-44.403 47.092,-94.394 60.042,-122.329 5.887,-12.351 11.48,-12.94 15.895,-12.351 z M 760.4,182.149 c 6.181,-10.586 5.886,-18.82 -8.535,-18.82 -10.89,0.294 -30.609,7.939 -39.733,14.997 -2.061,2.059 -1.178,3.235 1.472,2.059 1.766,-0.588 3.826,-1.764 5.886,-2.646 10.302,-5.587 6.182,6.175 3.826,10.586 -12.361,21.466 -34.142,51.755 -45.62,66.752 -5.499,7.383 -11.699,14.758 -17.667,21.029 -11.053,10.485 -32.883,29.062 -49.399,35.313 -53.567,19.996 14.716,-71.163 20.308,-78.515 12.656,-15.879 40.911,-43.521 49.446,-57.342 6.181,-10.586 5.886,-18.82 -8.535,-18.82 -10.89,0.294 -30.609,7.939 -39.733,14.997 -2.061,2.059 -1.178,3.234 1.472,2.059 1.766,-0.588 3.826,-1.765 5.887,-2.646 10.301,-5.587 6.181,6.175 3.825,10.586 -12.361,21.466 -34.142,51.754 -45.619,66.751 -9.418,12.645 -20.897,25.289 -29.728,32.347 -3.531,2.94 -1.471,5.588 2.062,3.235 3.237,-2.06 7.946,-6.764 13.244,-12.352 -9.713,19.408 -17.659,46.756 7.946,49.991 21.82,2.982 47.764,-19.286 64.541,-35.778 1.849,-1.751 3.877,-3.806 6.02,-6.042 0.504,-0.516 0.996,-1.019 1.472,-1.508 -9.695,19.404 -17.587,46.684 7.985,49.914 27.961,3.822 62.69,-33.817 76.229,-47.638 2.648,-2.646 1.766,-7.058 -2.649,-2.646 -7.946,8.233 -34.729,32.641 -54.154,39.992 -53.567,19.995 14.716,-71.163 20.308,-78.515 12.653,-15.878 40.908,-43.519 49.443,-57.34 z" />
            </g>
          </g>
          <defs
             id="defs182">
            <filter
               color-interpolation-filters="sRGB"
               height="265.47101"
               width="705.92902"
               y="134.16499"
               x="58.293999"
               filterUnits="userSpaceOnUse"
               id="filter3403">
              <feColorMatrix
                 id="feColorMatrix3405"
                 result="source"
                 color-interpolation-filters="sRGB"
                 values="-1 0 0 0 1  0 -1 0 0 1  0 0 -1 0 1  0 0 0 1 0"
                 type="matrix" />
            </filter>
          </defs>
          <mask
             id="mask3407"
             height="265.471"
             width="705.929"
             y="134.165"
             x="58.294"
             maskUnits="userSpaceOnUse">
            <g
               style="filter:url(#Adobe_OpacityMaskFilter_1_)"
               id="g3409">
              <image
                 xlink:href="/home/sotiri/BFF79FDAE99D0745.jpg"
                 overflow="visible"
                 width="711"
                 height="270"
                 transform="translate(56,132)"
                 id="image3411"
                 style="overflow:visible" />
            </g>
          </mask>
          <g
             style="opacity:0.75"
             id="g192"
             mask="url(#SVGID_4_)">
            <g
               id="g194">
              <path
                 style="fill:#ffffff"
                 inkscape:connector-curvature="0"
                 id="path196"
                 d="m 250.558,228.539 c 4.415,3.529 12.361,1.471 17.659,-4.411 5.592,-6.175 6.475,-14.115 2.061,-17.644 -4.415,-3.529 -12.362,-1.47 -17.66,4.705 -5.593,6.176 -6.475,13.822 -2.06,17.35 z m -12.951,11.469 c -1.177,0 -3.237,2.059 -1.472,2.94 2.354,0.882 3.532,2.94 3.532,5.882 -2.06,12.056 -17.07,25.877 -22.957,30.582 -1.472,1.47 0.589,4.705 2.06,3.528 3.238,-2.646 10.007,-7.939 15.6,-14.997 -9.124,20.29 -26.784,46.462 -33.553,55.577 -26.488,36.758 -66.811,70.574 -94.477,70.574 -22.074,0 -40.911,-14.996 -45.031,-37.051 -0.294,-2.354 -3.532,-2.94 -2.943,0.294 5.003,30.288 28.255,42.05 56.51,42.05 30.904,0 67.178,-22.392 87.126,-45.306 32.279,-37.078 53.265,-79.669 47.673,-103.782 -2.355,-9.115 -8.535,-10.585 -12.068,-10.291 z m 198.579,80.631 c 8.535,-2.059 15.599,-6.835 15.599,-14.222 0,-0.739 -1.472,-0.739 -1.472,0 0,4.432 -5.003,8.046 -10.595,8.928 -13.245,2.059 -39.439,-13.473 -51.801,-29.353 13.245,4.999 40.322,-2.326 52.978,-11.441 11.773,-8.528 16.482,-17.925 17.365,-25.57 1.471,-12.645 -12.362,-19.989 -31.493,-12.638 -12.361,4.999 -27.077,15.883 -42.382,36.173 16.188,-26.76 47.974,-70.279 79.172,-98.215 37.967,-33.817 60.042,-27.347 25.901,8.529 -14.128,14.703 -40.617,33.817 -58.865,42.051 -5.592,2.353 -2.943,5.587 1.177,3.822 19.426,-8.527 45.326,-26.171 60.925,-40.874 46.208,-44.403 7.652,-77.926 -43.56,-30.876 -34.73,32.053 -57.393,65.575 -77.112,109.097 -6.77,8.233 -11.773,14.997 -17.954,20.29 -0.729,0.643 -1.313,1.27 -1.794,1.869 -16.997,14.566 -43.677,34.228 -60.258,34.465 -11.773,0.294 -16.776,-8.528 -14.716,-19.996 3.237,-17.938 21.78,-39.11 37.673,-46.462 20.603,-9.41 32.669,8.821 5.592,23.524 -10.301,5.294 -22.663,8.234 -27.666,8.234 -5.886,0 -5.298,2.353 -0.294,2.646 8.241,0.294 21.486,-3.235 30.315,-7.353 27.666,-13.232 29.432,-37.934 -0.589,-38.815 -32.67,-1.176 -71.814,26.76 -71.52,61.753 0.294,15.879 12.95,24.407 30.315,24.407 28.878,-0.263 54.708,-22.281 75.826,-41.644 3.032,-2.522 5.961,-5.293 8.888,-8.218 -7.358,18.82 -11.184,36.17 -9.418,49.108 1.178,9.41 6.476,13.821 10.596,17.35 0.883,0.588 2.649,0 1.471,-1.764 -6.181,-7.352 -4.415,-29.166 4.121,-50.338 7.065,14.117 34.732,32.001 63.575,25.533 z m -34.729,-61.353 c 33.847,-30.288 47.091,-3.234 25.606,13.232 -11.184,8.528 -33.258,14.997 -40.322,10.88 l -1.472,-0.882 c -0.883,-1.47 -1.766,-2.94 -2.354,-4.41 5.591,-6.763 12.066,-12.939 18.542,-18.82 z m 187.854,-34.321 c 13.538,1.47 7.946,-14.998 -5.887,-10.88 -6.181,1.764 -12.067,13.527 -16.482,23.819 -13.538,20.29 -36.201,47.932 -52.095,62.341 -14.127,12.057 -27.077,15.291 -11.184,-7.352 6.475,-9.116 14.716,-18.82 19.425,-28.523 11.184,-24.407 -12.656,-35.287 -31.787,-20.584 -11.184,8.527 -26.194,26.171 -37.967,35.875 -3.238,2.646 -2.355,6.469 0.883,3.822 9.418,-7.646 25.9,-24.995 40.027,-35.287 11.773,-9.116 16.482,-3.234 9.713,4.411 -9.418,10.88 -25.9,29.7 -30.021,41.757 -5.887,17.938 1.177,25.877 12.949,25.877 16.188,0 40.322,-25.289 56.51,-45.285 5.298,-6.764 11.185,-14.703 16.188,-22.349 -14.128,27.348 -28.844,54.989 -47.092,79.984 -25.899,35.287 -58.275,61.752 -88.885,61.752 -22.074,0 -41.205,-14.996 -45.325,-37.051 -0.295,-2.353 -3.238,-2.94 -2.944,0.294 5.003,30.288 28.255,42.05 56.51,42.05 30.904,0 60.63,-17.938 81.527,-39.991 42.088,-44.403 47.092,-94.394 60.042,-122.329 5.887,-12.351 11.48,-12.94 15.895,-12.351 z M 760.4,182.149 c 6.181,-10.586 5.886,-18.82 -8.535,-18.82 -10.89,0.294 -30.609,7.939 -39.733,14.997 -2.061,2.059 -1.178,3.235 1.472,2.059 1.766,-0.588 3.826,-1.764 5.886,-2.646 10.302,-5.587 6.182,6.175 3.826,10.586 -12.361,21.466 -34.142,51.755 -45.62,66.752 -5.499,7.383 -11.699,14.758 -17.667,21.029 -11.053,10.485 -32.883,29.062 -49.399,35.313 -53.567,19.996 14.716,-71.163 20.308,-78.515 12.656,-15.879 40.911,-43.521 49.446,-57.342 6.181,-10.586 5.886,-18.82 -8.535,-18.82 -10.89,0.294 -30.609,7.939 -39.733,14.997 -2.061,2.059 -1.178,3.234 1.472,2.059 1.766,-0.588 3.826,-1.765 5.887,-2.646 10.301,-5.587 6.181,6.175 3.825,10.586 -12.361,21.466 -34.142,51.754 -45.619,66.751 -9.418,12.645 -20.897,25.289 -29.728,32.347 -3.531,2.94 -1.471,5.588 2.062,3.235 3.237,-2.06 7.946,-6.764 13.244,-12.352 -9.713,19.408 -17.659,46.756 7.946,49.991 21.82,2.982 47.764,-19.286 64.541,-35.778 1.849,-1.751 3.877,-3.806 6.02,-6.042 0.504,-0.516 0.996,-1.019 1.472,-1.508 -9.695,19.404 -17.587,46.684 7.985,49.914 27.961,3.822 62.69,-33.817 76.229,-47.638 2.648,-2.646 1.766,-7.058 -2.649,-2.646 -7.946,8.233 -34.729,32.641 -54.154,39.992 -53.567,19.995 14.716,-71.163 20.308,-78.515 12.653,-15.878 40.908,-43.519 49.443,-57.34 z" />
            </g>
          </g>
        </g>
        <g
           style="opacity:0.3;display:none"
           display="none"
           id="highlight_1_">
          <g
             style="display:inline"
             id="g199"
             display="inline">
            <path
               style="fill:#ffffff"
               inkscape:connector-curvature="0"
               id="path201"
               d="m 661.764,281.891 c -0.14,0.146 -0.274,0.283 -0.412,0.427 -4.196,9.143 -7.592,19.445 -7.32,28.013 0.295,-9.433 4.534,-20.601 9.204,-29.947 -0.476,0.488 -0.968,0.991 -1.472,1.507 z" />
            <path
               style="fill:#ffffff"
               inkscape:connector-curvature="0"
               id="path203"
               d="m 581.332,275.736 c -4.196,9.142 -7.591,19.445 -7.318,28.012 0.295,-9.459 4.558,-20.665 9.243,-30.028 -0.652,0.687 -1.293,1.36 -1.925,2.016 z" />
            <path
               style="fill:#ffffff"
               inkscape:connector-curvature="0"
               id="path205"
               d="m 711.666,180.841 c 0.136,-0.166 0.285,-0.335 0.466,-0.516 9.124,-7.057 28.844,-14.703 39.733,-14.997 8.229,0 11.854,2.684 12.304,6.954 0.53,-5.417 -2.853,-8.954 -12.304,-8.954 -10.89,0.294 -30.609,7.939 -39.733,14.997 -1.413,1.413 -1.442,2.409 -0.466,2.516 z" />
            <path
               style="fill:#ffffff"
               inkscape:connector-curvature="0"
               id="path207"
               d="m 744.801,278.013 c -7.946,8.233 -34.729,32.641 -54.154,39.992 -14.205,5.303 -19.84,2.787 -20.35,-3.907 -0.462,8.146 4.812,11.707 20.35,5.907 19.425,-7.352 46.208,-31.759 54.154,-39.992 2.147,-2.146 3.452,-2.196 3.929,-1.386 0.747,-2.206 -0.558,-3.982 -3.929,-0.614 z" />
            <path
               style="fill:#ffffff"
               inkscape:connector-curvature="0"
               id="path209"
               d="m 567.951,282.836 c 8.83,-7.058 20.31,-19.702 29.728,-32.347 11.478,-14.997 33.258,-45.285 45.619,-66.751 1.331,-2.492 3.223,-7.329 2.762,-10.06 -0.325,2.695 -1.716,6.101 -2.762,8.06 -12.361,21.466 -34.142,51.754 -45.619,66.751 -9.418,12.645 -20.897,25.289 -29.728,32.347 -1.883,1.568 -2.166,3.045 -1.493,3.732 0.289,-0.539 0.768,-1.128 1.493,-1.732 z" />
            <path
               style="fill:#ffffff"
               inkscape:connector-curvature="0"
               id="path211"
               d="m 631.648,174.255 c 0.137,-0.165 0.286,-0.335 0.466,-0.515 9.124,-7.058 28.844,-14.703 39.733,-14.997 8.229,0 11.854,2.684 12.305,6.954 0.529,-5.417 -2.854,-8.954 -12.305,-8.954 -10.89,0.294 -30.609,7.939 -39.733,14.997 -1.413,1.411 -1.441,2.407 -0.466,2.515 z" />
            <path
               style="fill:#ffffff"
               inkscape:connector-curvature="0"
               id="path213"
               d="m 723.315,190.324 c 1.33,-2.492 3.223,-7.329 2.762,-10.059 -0.325,2.695 -1.716,6.101 -2.762,8.059 -12.361,21.466 -34.142,51.755 -45.62,66.752 -5.499,7.383 -11.699,14.758 -17.667,21.029 -11.053,10.485 -32.883,29.062 -49.399,35.313 -14.205,5.302 -19.84,2.787 -20.349,-3.907 -0.462,8.146 4.812,11.707 20.349,5.907 16.517,-6.252 38.347,-24.828 49.399,-35.313 5.968,-6.271 12.168,-13.646 17.667,-21.029 11.479,-14.997 33.259,-45.285 45.62,-66.752 z" />
          </g>
          <g
             style="display:inline"
             id="g215"
             display="inline">
            <path
               style="fill:#ffffff"
               inkscape:connector-curvature="0"
               id="path217"
               d="m 514.847,300.244 c -8.886,7.584 -17.301,11.671 -18.37,8.028 -1.29,6.727 8.236,2.62 18.37,-6.028 15.894,-14.409 38.557,-42.051 52.095,-62.341 4.415,-10.292 10.302,-22.055 16.482,-23.819 7.621,-2.268 12.73,1.711 13.528,5.497 0.98,-4.139 -4.525,-10.176 -13.528,-7.497 -6.181,1.764 -12.067,13.527 -16.482,23.819 -13.539,20.29 -36.202,47.932 -52.095,62.341 z" />
            <path
               style="fill:#ffffff"
               inkscape:connector-curvature="0"
               id="path219"
               d="m 506.95,247.412 c -0.327,1.483 -1.302,3.283 -2.993,5.194 -9.418,10.88 -25.9,29.7 -30.021,41.757 -1.59,4.845 -2.228,8.954 -2.091,12.381 0.132,-2.994 0.799,-6.446 2.091,-10.381 4.12,-12.057 20.603,-30.877 30.021,-41.757 2.558,-2.888 3.475,-5.523 2.993,-7.194 z" />
            <path
               style="fill:#ffffff"
               inkscape:connector-curvature="0"
               id="path221"
               d="m 453.334,281.66 c 11.773,-9.704 26.783,-27.348 37.967,-35.875 15.42,-11.852 33.887,-7.074 34.619,8.003 0.87,-16.64 -18.535,-22.364 -34.619,-10.003 -11.184,8.527 -26.194,26.171 -37.967,35.875 -1.911,1.562 -2.378,3.524 -1.781,4.334 0.299,-0.759 0.872,-1.592 1.781,-2.334 z" />
            <path
               style="fill:#ffffff"
               inkscape:connector-curvature="0"
               id="path223"
               d="m 375.458,358.222 c 0.549,-1.602 2.582,-0.866 2.824,1.07 4.12,22.055 23.251,37.051 45.325,37.051 30.609,0 62.985,-26.465 88.885,-61.752 18.248,-24.995 32.964,-52.637 47.092,-79.984 -1.411,2.155 -2.896,4.334 -4.414,6.504 -12.802,24.541 -26.319,49.074 -42.678,71.48 -25.899,35.287 -58.275,61.752 -88.885,61.752 -22.074,0 -41.205,-14.996 -45.325,-37.051 -0.295,-2.353 -3.238,-2.94 -2.944,0.294 0.037,0.216 0.082,0.421 0.12,0.636 z" />
          </g>
          <g
             style="display:inline"
             id="g225"
             display="inline">
            <path
               style="fill:#ffffff"
               inkscape:connector-curvature="0"
               id="path227"
               d="m 320.568,279.74 c -10.301,5.294 -22.663,8.234 -27.666,8.234 -4.696,0 -5.261,1.495 -2.761,2.249 0.676,-0.152 1.583,-0.249 2.761,-0.249 5.003,0 17.365,-2.94 27.666,-8.234 11.909,-6.466 16.244,-13.614 15.613,-18.794 -0.555,4.932 -5.171,11.124 -15.613,16.794 z" />
            <path
               style="fill:#ffffff"
               inkscape:connector-curvature="0"
               id="path229"
               d="m 364.624,283.953 c -5.54,14.862 -8.75,28.675 -8.607,39.965 0.25,-11.731 3.885,-25.968 9.827,-41.166 -0.406,0.406 -0.814,0.802 -1.22,1.201 z" />
            <path
               style="fill:#ffffff"
               inkscape:connector-curvature="0"
               id="path231"
               d="m 276.883,308.513 c -0.39,9.535 4.716,16.421 15.136,16.161 16.581,-0.237 43.261,-19.898 60.258,-34.465 0.48,-0.6 1.064,-1.227 1.794,-1.869 6.181,-5.293 11.184,-12.057 17.954,-20.29 19.72,-43.521 42.382,-77.044 77.112,-109.097 34.491,-31.688 63.238,-26.826 64.218,-6.708 0.864,-21.762 -28.612,-28.003 -64.218,4.708 -34.73,32.053 -57.393,65.575 -77.112,109.097 -6.77,8.233 -11.773,14.997 -17.954,20.29 -0.729,0.643 -1.313,1.27 -1.794,1.869 -16.997,14.566 -43.677,34.228 -60.258,34.465 -9.676,0.241 -14.769,-5.68 -15.136,-14.161 z" />
            <path
               style="fill:#ffffff"
               inkscape:connector-curvature="0"
               id="path233"
               d="m 430.594,224.881 c -3.229,1.358 -3.702,3.006 -2.738,3.819 0.477,-0.601 1.353,-1.237 2.738,-1.819 18.248,-8.234 44.737,-27.348 58.865,-42.051 12.647,-13.291 17.574,-22.541 16.842,-27.207 -0.646,5.083 -5.802,13.605 -16.842,25.207 -14.128,14.703 -40.617,33.817 -58.865,42.051 z" />
            <path
               style="fill:#ffffff"
               inkscape:connector-curvature="0"
               id="path235"
               d="m 427.062,274.519 c 7.566,-5.8 10.82,-12.909 10.389,-18.367 -0.397,5.121 -3.717,11.254 -10.389,16.367 -11.184,8.528 -33.258,14.997 -40.322,10.88 l -1.472,-0.882 c -0.623,-1.036 -1.24,-2.073 -1.759,-3.109 -0.197,0.233 -0.4,0.463 -0.595,0.699 0.589,1.47 1.472,2.94 2.354,4.41 l 1.472,0.882 c 7.064,4.117 29.138,-2.352 40.322,-10.88 z" />
            <path
               style="fill:#ffffff"
               inkscape:connector-curvature="0"
               id="path237"
               d="m 450.313,306 c 0,5 -5.003,8.255 -10.595,9.137 -12.496,1.942 -36.513,-11.67 -49.571,-26.562 -0.777,-0.197 -1.527,-0.369 -2.23,-0.634 12.362,15.879 38.556,31.438 51.801,29.379 5.592,-0.883 10.595,-4.483 10.595,-8.916 0,-0.603 0.971,-0.906 1.331,-0.524 0.083,-0.545 0.141,-0.879 0.141,-1.879 h -1.472 z" />
            <path
               style="fill:#ffffff"
               inkscape:connector-curvature="0"
               id="path239"
               d="m 322.334,246.453 c 14.172,0.417 21.252,6.143 21.876,13.463 0.573,-8.252 -6.438,-15.009 -21.876,-15.463 -32.67,-1.176 -71.814,26.76 -71.52,61.753 0.002,0.12 0.012,0.235 0.015,0.354 0.921,-34.218 39.349,-61.264 71.505,-60.107 z" />
            <path
               style="fill:#ffffff"
               inkscape:connector-curvature="0"
               id="path241"
               d="m 426.768,236.343 c -10.773,4.357 -23.336,13.189 -36.518,28.818 -2.124,3.287 -4.092,6.426 -5.864,9.354 15.305,-20.29 30.021,-31.174 42.382,-36.173 17.671,-6.791 30.812,-1.038 31.557,9.844 0.808,-12.152 -12.832,-19.039 -31.557,-11.843 z" />
            <path
               style="fill:#ffffff"
               inkscape:connector-curvature="0"
               id="path243"
               d="m 364.828,331.673 c -0.115,6.95 1.041,12.514 3.552,15.626 0.51,-0.253 0.769,-0.87 0.112,-1.853 -2.343,-2.787 -3.541,-7.654 -3.664,-13.773 z" />
          </g>
          <g
             style="display:inline"
             id="g245"
             display="inline">
            <path
               style="fill:#ffffff"
               inkscape:connector-curvature="0"
               id="path247"
               d="m 236.002,242.865 c 0.458,-0.489 1.109,-0.857 1.605,-0.857 3.532,-0.294 9.713,1.176 12.067,10.292 0.521,2.247 0.81,4.655 0.882,7.203 0.05,-3.293 -0.227,-6.379 -0.882,-9.203 -2.354,-9.116 -8.535,-10.586 -12.067,-10.292 -1.143,0 -3.107,1.937 -1.605,2.857 z" />
            <path
               style="fill:#ffffff"
               inkscape:connector-curvature="0"
               id="path249"
               d="m 58.45,357.785 c 0.575,-1.344 2.627,-0.595 2.859,1.259 4.12,22.055 22.957,37.051 45.031,37.051 27.667,0 67.989,-33.816 94.477,-70.574 6.77,-9.115 24.429,-35.287 33.553,-55.577 -0.702,0.886 -1.422,1.743 -2.151,2.571 -9.519,19.483 -25.13,42.562 -31.402,51.006 -26.488,36.758 -66.811,70.574 -94.477,70.574 -22.074,0 -40.911,-14.996 -45.031,-37.051 -0.294,-2.354 -3.532,-2.94 -2.943,0.294 0.025,0.151 0.057,0.296 0.084,0.447 z" />
            <path
               style="fill:#ffffff"
               inkscape:connector-curvature="0"
               id="path251"
               d="m 216.71,281.412 c 5.887,-4.705 20.897,-18.526 22.957,-30.582 0,-0.505 -0.047,-0.974 -0.117,-1.425 -2.426,11.918 -17.047,25.376 -22.84,30.007 -0.628,0.628 -0.61,1.576 -0.271,2.367 0.074,-0.13 0.159,-0.255 0.271,-0.367 z" />
          </g>
          <path
             style="fill:#ffffff;display:inline"
             inkscape:connector-curvature="0"
             id="path253"
             d="m 252.618,213.19 c 5.298,-6.175 13.245,-8.234 17.66,-4.705 1.633,1.306 2.537,3.217 2.75,5.417 0.248,-3.03 -0.639,-5.73 -2.75,-7.417 -4.415,-3.529 -12.362,-1.47 -17.66,4.705 -3.528,3.896 -5.176,8.374 -4.808,12.038 0.278,-3.221 1.899,-6.827 4.808,-10.038 z"
             display="inline" />
        </g>
      </g>
    </g>
  </g>
</svg>
