<?xml version="1.0" encoding="UTF-8" standalone="no"?>
<!-- Created with Inkscape (http://www.inkscape.org/) -->
<svg xmlns:dc="http://purl.org/dc/elements/1.1/" xmlns:cc="http://creativecommons.org/ns#" xmlns:rdf="http://www.w3.org/1999/02/22-rdf-syntax-ns#" xmlns:svg="http://www.w3.org/2000/svg" xmlns="http://www.w3.org/2000/svg" xmlns:sodipodi="http://sodipodi.sourceforge.net/DTD/sodipodi-0.dtd" xmlns:inkscape="http://www.inkscape.org/namespaces/inkscape" width="107.14286" height="107.14286" id="svg3818" version="1.1" inkscape:version="0.48.3.1 r9886" sodipodi:docname="sotiriosvrachas.svg">
  <defs id="defs3820"/>
  <sodipodi:namedview id="base" pagecolor="#ffffff" bordercolor="#666666" borderopacity="1.0" inkscape:pageopacity="0.0" inkscape:pageshadow="2" inkscape:zoom="1.4" inkscape:cx="57.450615" inkscape:cy="78.848669" inkscape:document-units="px" inkscape:current-layer="layer1" showgrid="false" fit-margin-top="0" fit-margin-left="0" fit-margin-right="0" fit-margin-bottom="0" inkscape:window-width="1366" inkscape:window-height="768" inkscape:window-x="0" inkscape:window-y="0" inkscape:window-maximized="0"/>
  <metadata id="metadata3823">
    <rdf:RDF>
      <cc:Work rdf:about="">
        <dc:format>image/svg+xml</dc:format>
        <dc:type rdf:resource="http://purl.org/dc/dcmitype/StillImage"/>
        <dc:title/>
      </cc:Work>
    </rdf:RDF>
  </metadata>
  <g inkscape:label="Layer 1" inkscape:groupmode="layer" id="layer1" transform="translate(-259.93742,-363.85333)">
    <path inkscape:connector-curvature="0" d="m 263.77304,367.26207 c -0.39503,0.4939 -0.59523,1.34461 -0.59523,2.52974 0,1.18532 0.25024,2.01162 0.74404,2.50494 4.14812,0.34581 6.8509,1.27165 8.13486,2.75295 1.33329,1.43228 3.16013,5.11092 5.48111,11.03662 l 29.93527,77.62837 c 0.88885,2.37035 2.04007,3.54661 3.4722,3.54661 1.07295,-0.0346 1.99535,-0.63513 2.75296,-1.78571 0.16446,0.0365 0.30433,0.0615 0.47123,0.0992 5.2142,1.12097 10.20349,1.6865 14.93043,1.6865 7.06597,0 13.21404,-1.62096 18.47704,-4.88587 4.28829,-2.68031 7.7089,-6.20338 10.24298,-10.5406 2.53396,-4.33703 3.79455,-8.86425 3.79461,-13.59116 -6e-5,-3.41112 -0.54008,-6.52365 -1.61209,-9.35014 -1.07216,-2.82627 -2.61604,-5.26968 -4.66267,-7.31641 -1.99804,-2.09537 -4.15805,-3.84466 -6.44836,-5.25789 -2.24168,-1.4619 -4.81422,-2.82507 -7.73803,-4.09223 -0.63356,-0.2436 -2.15087,-0.83448 -4.53866,-1.7609 -0.13717,-0.0531 -0.21261,-0.0717 -0.34721,-0.12402 l 9.72214,-23.95815 c 0.83942,-2.07387 1.41493,-3.5001 1.7113,-4.24103 0.3456,-0.74066 0.94637,-1.84179 1.8353,-3.32339 0.8888,-1.53073 1.76453,-2.60663 2.60414,-3.19939 0.8888,-0.64189 2.06504,-1.26819 3.54661,-1.9097 1.53076,-0.69133 3.25747,-1.16607 5.18349,-1.41369 0.4937,-0.44427 0.74394,-1.24521 0.74404,-2.43053 -10e-5,-1.23436 -0.25034,-2.11083 -0.74404,-2.60414 -8.0988,0.1979 -12.52828,0.29771 -13.31835,0.29762 -1.27805,0 -6.14963,-0.10091 -13.41756,-0.24803 -0.92927,-0.0371 -1.87571,-0.0496 -2.85215,-0.0496 -0.10368,-0.003 -0.14332,0.003 -0.24802,0 -7.73915,0.0505 -14.37081,2.46875 -19.91552,7.24201 -5.55534,4.77568 -8.33327,11.00077 -8.33327,18.70025 0,4.38589 1.02955,8.34654 3.12497,11.85506 2.14417,3.50872 4.69015,6.3123 7.61403,8.40768 2.92385,2.04672 6.55074,4.0022 10.88782,5.90273 0.23922,0.10631 0.68645,0.29662 1.04165,0.44642 l -10.34218,26.33909 -0.74403,0 -24.15656,-61.78028 c -1.82712,-4.49364 -2.27756,-7.47171 -1.33928,-8.95331 0.93824,-1.53073 3.96609,-2.58097 9.05251,-3.12497 0.39505,-0.44428 0.59521,-1.24522 0.59523,-2.43054 0,-1.23436 -0.20028,-2.11082 -0.59523,-2.60414 -9.53082,0.1979 -15.66182,0.29771 -18.37784,0.29762 -0.98765,0 -6.24289,-0.0997 -15.77368,-0.29762 z m 66.12052,5.10909 c 1.9983,0 3.83272,0.19942 5.5059,0.57043 0.0404,0.008 0.0837,0.0156 0.12402,0.0248 2.55143,0.63639 4.17699,1.64141 4.83628,3.02577 1.03695,2.07406 0.58657,5.202 -1.33928,9.35012 l -8.8789,22.56927 c -1.5217,-0.67587 -3.34671,-1.61831 -5.5059,-2.85216 -2.33911,-1.36439 -4.24242,-2.72766 -5.70433,-4.09223 -1.46195,-1.41315 -2.72254,-3.13668 -3.79461,-5.1835 -1.07216,-2.09528 -1.61211,-4.33229 -1.6121,-6.67156 -10e-6,-4.23944 1.62088,-8.0726 4.88588,-11.53265 3.3137,-3.45977 7.14596,-5.2081 11.48305,-5.2083 z m 1.53768,49.85081 c 1.46172,0.56475 2.73925,1.06016 3.64581,1.46328 1.36442,0.58481 3.06147,1.53653 5.05948,2.85216 2.04666,1.26705 3.59054,2.60468 4.66266,4.01782 1.12076,1.36467 2.09805,3.19079 2.92656,5.4811 0.87712,2.24176 1.31442,4.73626 1.31448,7.46523 -6e-5,5.99397 -1.62095,10.57247 -4.88587,13.73997 -3.21631,3.11884 -7.8205,4.68746 -13.81438,4.68746 -5.39089,0 -9.98169,-1.0068 -13.78957,-3.00096 l 14.88083,-36.70606 z" id="path3006-1-7-5" inkscape:export-filename="/home/sotiri/g3868-6.png" inkscape:export-xdpi="90" inkscape:export-ydpi="90" style="font-size:22.83056641px;font-style:normal;font-variant:normal;font-weight:normal;font-stretch:normal;line-height:125%;letter-spacing:0px;word-spacing:0px;fill:#ffffff;fill-opacity:1;stroke:none;font-family:Linux Libertine;-inkscape-font-specification:Linux Libertine"/>
  </g>
</svg>